<svg xmlns="http://www.w3.org/2000/svg" version="1.1" xmlns:xlink="http://www.w3.org/1999/xlink" xmlns:svgjs="http://svgjs.dev/svgjs" width="1000" height="1000" viewBox="0 0 1000 1000"><rect width="1000" height="1000" fill="#ffffff"></rect><g transform="matrix(0.7,0,0,0.7,149.57575757575756,346.96684412722163)"><svg viewBox="0 0 396 173" data-background-color="#ffffff" preserveAspectRatio="xMidYMid meet" height="436" width="1000" xmlns="http://www.w3.org/2000/svg" xmlns:xlink="http://www.w3.org/1999/xlink"><defs></defs><g id="tight-bounds" transform="matrix(1,0,0,1,0.2400000000000091,0.2455306880427628)"><svg viewBox="0 0 395.52 172.50893862391447" height="172.50893862391447" width="395.52"><g><svg viewBox="0 0 395.52 172.50893862391447" height="172.50893862391447" width="395.52"><g transform="matrix(1,0,0,1,0,99.41333692699436)"><svg viewBox="0 0 395.52 73.09560169692011" height="73.09560169692011" width="395.52"><g><svg viewBox="0 0 395.52 73.09560169692011" height="73.09560169692011" width="395.52"><g><svg viewBox="0 0 395.52 49.06057469212921" height="49.06057469212921" width="395.52"><g transform="matrix(1,0,0,1,0,0)"><svg width="395.52" viewBox="1.149999976158142 -34.25 280.1300048828125 34.75" height="49.06057469212921" data-palette-color="#152232"><path d="M13.45-14.3L13.45-14.3 13.1-13.1 21.2-13.1 20.85-14.3Q19.4-19.2 18.48-22.65 17.55-26.1 17.35-27.1L17.35-27.1 17.15-28.1Q16.75-25.35 13.45-14.3ZM11.25-6.9L9.2 0 1.15 0 12.4-33.7 22.1-33.7 33.35 0 25.1 0 23.05-6.9 11.25-6.9ZM64.9-33.7L64.9-13.05Q64.9-6.45 61.2-2.98 57.5 0.5 51.2 0.5L51.2 0.5Q45 0.5 41.25-2.95 37.5-6.4 37.5-12.7L37.5-12.7 37.5-33.7 45.2-33.7 45.2-12.75Q45.2-6.5 51.2-6.5 57.2-6.5 57.2-13L57.2-13 57.2-33.7 64.9-33.7ZM93.6-33.7L93.6-27.5 85.4-27.5 85.4 0 77.65 0 77.65-27.5 69.4-27.5 69.4-33.7 93.6-33.7ZM129.89-16.95L129.89-16.95Q129.89-9.2 125.42-4.42 120.94 0.35 113.49 0.35L113.49 0.35Q105.99 0.35 101.54-4.4 97.09-9.15 97.09-16.95L97.09-16.95Q97.09-24.7 101.57-29.48 106.04-34.25 113.49-34.25L113.49-34.25Q120.99-34.25 125.44-29.5 129.89-24.75 129.89-16.95ZM107.54-24.48Q105.34-21.7 105.34-16.95 105.34-12.2 107.54-9.43 109.74-6.65 113.49-6.65 117.24-6.65 119.44-9.43 121.64-12.2 121.64-16.95 121.64-21.7 119.44-24.48 117.24-27.25 113.49-27.25 109.74-27.25 107.54-24.48ZM156.09-9.8L156.09-9.8Q156.09-5.25 152.74-2.43 149.39 0.4 143.84 0.4L143.84 0.4Q137.89 0.4 134.14-1.7L134.14-1.7 134.14-9.45Q138.69-6.15 143.84-6.15L143.84-6.15Q145.59-6.15 146.74-7.08 147.89-8 147.89-9.5L147.89-9.5Q147.89-10 147.74-10.45 147.59-10.9 147.19-11.3 146.79-11.7 146.42-11.98 146.04-12.25 145.32-12.63 144.59-13 144.09-13.25 143.59-13.5 142.62-13.95 141.64-14.4 141.04-14.65L141.04-14.65Q137.79-16.15 135.82-18.35 133.84-20.55 133.84-24.2L133.84-24.2Q133.84-28.55 137.04-31.23 140.24-33.9 145.89-33.9L145.89-33.9Q150.94-33.9 154.59-32.2L154.59-32.2 154.59-25Q150.54-27.35 146.19-27.35L146.19-27.35Q144.24-27.35 143.22-26.55 142.19-25.75 142.19-24.5 142.19-23.25 143.44-22.28 144.69-21.3 147.19-20.2L147.19-20.2Q148.74-19.5 149.77-18.98 150.79-18.45 152.12-17.53 153.44-16.6 154.22-15.58 154.99-14.55 155.54-13.05 156.09-11.55 156.09-9.8ZM188.64-33.7L188.64 0 180.89 0 180.89-13.45 168.54-13.45 168.54 0 160.84 0 160.84-33.7 168.54-33.7 168.54-20 180.89-20 180.89-33.7 188.64-33.7ZM205.34-14.3L205.34-14.3 204.99-13.1 213.09-13.1 212.74-14.3Q211.29-19.2 210.36-22.65 209.44-26.1 209.24-27.1L209.24-27.1 209.04-28.1Q208.64-25.35 205.34-14.3ZM203.14-6.9L201.09 0 193.04 0 204.29-33.7 213.99-33.7 225.24 0 216.99 0 214.94-6.9 203.14-6.9ZM241.13-27.45L241.13-27.45 237.33-27.45 237.33-17.95 240.98-17.95Q245.98-17.95 245.98-22.85L245.98-22.85Q245.98-25 244.68-26.23 243.38-27.45 241.13-27.45ZM237.33-11.7L237.33 0 229.63 0 229.63-33.7 241.28-33.7Q246.93-33.7 250.36-30.7 253.78-27.7 253.78-22.9L253.78-22.9Q253.78-15.7 247.63-12.95L247.63-12.95 256.18 0 246.98 0 239.68-11.7 237.33-11.7ZM281.28-6.15L281.28 0 260.33 0 260.33-33.7 281.08-33.7 281.08-27.55 268.08-27.55 268.08-19.9 279.68-19.9 279.68-13.8 268.08-13.8 268.08-6.15 281.28-6.15Z" opacity="1" transform="matrix(1,0,0,1,0,0)" fill="#152232" class="undefined-text-0" data-fill-palette-color="primary" id="text-0"></path></svg></g></svg></g><g transform="matrix(1,0,0,1,75.54432,60.642598923148306)"><svg viewBox="0 0 244.43135999999998 12.453002773771816" height="12.453002773771816" width="244.43135999999998"><g transform="matrix(1,0,0,1,0,0)"><svg width="244.43135999999998" viewBox="4.650000095367432 -32.099998474121094 741.8599853515625 37.79999923706055" height="12.453002773771816" data-palette-color="#5ebc67"><path d="M17.7-12.95Q21-7.5 26-0.95L26-0.95 25.95-0.45Q24.15 0.25 22.25 0.45L22.25 0.45 21.7 0.1Q17.6-6.05 14.35-11.9L14.35-11.9 8.5-11.9 8.5-10 8.7 0 4.65 0 4.9-9.65 4.65-32.05 14.45-32.1Q19.15-32.1 21.73-29.73 24.3-27.35 24.3-22.95L24.3-22.95Q24.3-19.65 22.58-17.03 20.85-14.4 17.7-12.95L17.7-12.95ZM8.7-28.65L8.55-15.3 14.55-15.15Q20.15-16.75 20.15-22.6L20.15-22.6Q20.15-25.65 18.5-27.18 16.85-28.7 13.55-28.8L13.55-28.8 8.7-28.65ZM42.9-24.9L51.65 0 47.9 0 47.3-2.7 46-6.4 40.05-6.45 34.75-6.4 33.4-2.9 32.7 0 29 0 38.6-24.9 42.9-24.9ZM40.35-9.4L44.95-9.45 40.8-21.25 40.5-21.25 35.95-9.45 40.35-9.4ZM70.64-24.9L70.84-24.6 70.59-21.45 65.94-21.8 63.45-21.8 63.3-7.8 63.45 0 59.7 0 59.84-7.5 59.74-21.8 57.24-21.8 52.49-21.45 52.2-21.8 52.49-24.9 70.64-24.9ZM85.49-3L92.14-3.2 92.44-2.9 92.09 0 76.94 0 77.09-7.5 76.94-24.9 92.19-24.9 92.44-24.6 92.14-21.7 85.84-21.9 80.64-21.85 80.59-14.3 85.54-14.25 89.89-14.4 90.14-14.05 89.84-11.1 85.24-11.25 80.59-11.2 80.54-7.8 80.59-3.05 85.49-3ZM106.04-25.15Q109.09-25.15 112.14-23.95L112.14-23.95 111.49-20.25 110.89-20.1Q109.49-21.2 108.24-21.73 106.99-22.25 105.64-22.25L105.64-22.25Q103.49-22.25 102.24-21.13 100.99-20 100.99-18.55L100.99-18.55Q100.99-17.1 102.22-16.2 103.44-15.3 105.99-14.2L105.99-14.2Q108.24-13.2 109.56-12.4 110.89-11.6 111.86-10.28 112.84-8.95 112.84-7.05L112.84-7.05Q112.84-5.1 111.79-3.43 110.74-1.75 108.72-0.73 106.69 0.3 103.89 0.3L103.89 0.3Q102.14 0.3 100.22-0.13 98.29-0.55 96.64-1.4L96.64-1.4 97.09-5.35 97.59-5.55Q98.99-4.15 100.86-3.38 102.74-2.6 104.34-2.6L104.34-2.6Q106.44-2.6 107.79-3.73 109.14-4.85 109.14-6.45L109.14-6.45Q109.14-7.95 107.91-8.85 106.69-9.75 104.09-10.95L104.09-10.95Q101.94-11.9 100.56-12.7 99.19-13.5 98.24-14.83 97.29-16.15 97.29-18.05L97.29-18.05Q97.29-20.05 98.36-21.65 99.44-23.25 101.41-24.2 103.39-25.15 106.04-25.15L106.04-25.15ZM135.53-25.15Q138.59-25.15 141.63-23.95L141.63-23.95 140.99-20.25 140.38-20.1Q138.99-21.2 137.74-21.73 136.49-22.25 135.13-22.25L135.13-22.25Q132.99-22.25 131.74-21.13 130.49-20 130.49-18.55L130.49-18.55Q130.49-17.1 131.71-16.2 132.94-15.3 135.49-14.2L135.49-14.2Q137.74-13.2 139.06-12.4 140.38-11.6 141.36-10.28 142.34-8.95 142.34-7.05L142.34-7.05Q142.34-5.1 141.28-3.43 140.24-1.75 138.21-0.73 136.19 0.3 133.38 0.3L133.38 0.3Q131.63 0.3 129.71-0.13 127.78-0.55 126.14-1.4L126.14-1.4 126.59-5.35 127.09-5.55Q128.49-4.15 130.36-3.38 132.24-2.6 133.84-2.6L133.84-2.6Q135.94-2.6 137.28-3.73 138.63-4.85 138.63-6.45L138.63-6.45Q138.63-7.95 137.41-8.85 136.19-9.75 133.59-10.95L133.59-10.95Q131.44-11.9 130.06-12.7 128.69-13.5 127.73-14.83 126.78-16.15 126.78-18.05L126.78-18.05Q126.78-20.05 127.86-21.65 128.94-23.25 130.91-24.2 132.88-25.15 135.53-25.15L135.53-25.15ZM159.23-25.2Q164.68-25.2 167.61-22 170.53-18.8 170.53-12.95L170.53-12.95Q170.53-6.6 167.41-3.13 164.28 0.35 158.48 0.35L158.48 0.35Q153.08 0.35 150.13-2.93 147.18-6.2 147.18-12.25L147.18-12.25Q147.18-18.45 150.33-21.83 153.48-25.2 159.23-25.2L159.23-25.2ZM158.88-22.05Q154.93-22.05 153.01-19.8 151.08-17.55 151.08-12.7L151.08-12.7Q151.08-7.5 152.98-5.15 154.88-2.8 158.78-2.8L158.78-2.8Q162.78-2.8 164.73-5.1 166.68-7.4 166.68-12.3L166.68-12.3Q166.68-17.35 164.76-19.7 162.83-22.05 158.88-22.05L158.88-22.05ZM198.73-3.15L198.93-2.8 198.68 0 185.43 0 185.58-7.5 185.43-24.9 189.18-24.9 189.03-7.8 189.13-3.15 198.73-3.15ZM212.43-25.2Q217.88-25.2 220.8-22 223.72-18.8 223.72-12.95L223.72-12.95Q223.72-6.6 220.6-3.13 217.47 0.35 211.68 0.35L211.68 0.35Q206.28 0.35 203.32-2.93 200.38-6.2 200.38-12.25L200.38-12.25Q200.38-18.45 203.53-21.83 206.68-25.2 212.43-25.2L212.43-25.2ZM212.07-22.05Q208.13-22.05 206.2-19.8 204.28-17.55 204.28-12.7L204.28-12.7Q204.28-7.5 206.18-5.15 208.07-2.8 211.97-2.8L211.97-2.8Q215.97-2.8 217.93-5.1 219.88-7.4 219.88-12.3L219.88-12.3Q219.88-17.35 217.95-19.7 216.03-22.05 212.07-22.05L212.07-22.05ZM263.42-24.9L254.12 0 250.12 0 245.22-13.6 244.92-13.6 239.77 0 235.77 0 227.62-24.9 231.37-24.9 231.82-22.25 237.92-4.15 238.17-4.15 243.62-18.7 241.57-24.9 245.47-24.9 246.02-21.95 252.12-4.15 252.42-4.15 259.17-22.05 259.77-24.9 263.42-24.9ZM270.72-4.35Q272.82-3.05 272.82-1L272.82-1Q272.82 2.25 268.12 5.7L268.12 5.7 266.77 4.45 266.77 4.1Q269.52 1.95 269.52-0.3L269.52-0.3Q269.52-1.65 267.97-2.65L267.97-2.65 267.97-3.05Q269.37-4 270.72-4.35L270.72-4.35ZM297.26-8.7L297.21-7.15 297.37 0 293.62 0 293.81-7.15 293.76-8.7 285.31-24.9 289.42-24.9 289.92-23.45 295.51-12.75 295.76-12.75 301.87-23.3 302.51-24.9 306.51-24.9 297.26-8.7ZM320.31-25.2Q325.76-25.2 328.69-22 331.61-18.8 331.61-12.95L331.61-12.95Q331.61-6.6 328.49-3.13 325.36 0.35 319.56 0.35L319.56 0.35Q314.16 0.35 311.21-2.93 308.26-6.2 308.26-12.25L308.26-12.25Q308.26-18.45 311.41-21.83 314.56-25.2 320.31-25.2L320.31-25.2ZM319.96-22.05Q316.01-22.05 314.09-19.8 312.16-17.55 312.16-12.7L312.16-12.7Q312.16-7.5 314.06-5.15 315.96-2.8 319.86-2.8L319.86-2.8Q323.86-2.8 325.81-5.1 327.76-7.4 327.76-12.3L327.76-12.3Q327.76-17.35 325.84-19.7 323.91-22.05 319.96-22.05L319.96-22.05ZM357.66-24.9L357.51-12.25 357.51-8.65Q357.56-4.4 354.94-2.05 352.31 0.3 347.41 0.3L347.41 0.3Q342.56 0.3 340.01-2.02 337.46-4.35 337.56-8.65L337.56-8.65 337.61-12.45 337.56-24.9 341.31-24.9 341.11-9.25Q341.06-6.1 342.69-4.5 344.31-2.9 347.56-2.9L347.56-2.9Q350.76-2.9 352.41-4.5 354.06-6.1 354.01-9.25L354.01-9.25 353.86-24.9 357.66-24.9ZM407-24.9L397.7 0 393.7 0 388.81-13.6 388.5-13.6 383.36 0 379.36 0 371.2-24.9 374.95-24.9 375.41-22.25 381.5-4.15 381.75-4.15 387.2-18.7 385.16-24.9 389.06-24.9 389.61-21.95 395.7-4.15 396-4.15 402.75-22.05 403.36-24.9 407-24.9ZM422.25-25.2Q427.7-25.2 430.63-22 433.55-18.8 433.55-12.95L433.55-12.95Q433.55-6.6 430.43-3.13 427.3 0.35 421.5 0.35L421.5 0.35Q416.1 0.35 413.15-2.93 410.2-6.2 410.2-12.25L410.2-12.25Q410.2-18.45 413.35-21.83 416.5-25.2 422.25-25.2L422.25-25.2ZM421.9-22.05Q417.95-22.05 416.03-19.8 414.1-17.55 414.1-12.7L414.1-12.7Q414.1-7.5 416-5.15 417.9-2.8 421.8-2.8L421.8-2.8Q425.8-2.8 427.75-5.1 429.7-7.4 429.7-12.3L429.7-12.3Q429.7-17.35 427.78-19.7 425.85-22.05 421.9-22.05L421.9-22.05ZM461.1-25L460.95-7.45 461 0 457 0 443.9-19 443.65-19 443.6-8.3 443.7 0 440.3 0 440.45-7.35 440.35-24.9 444.3-24.9 457.4-5.9 457.75-5.9 457.65-24.75 461.1-25ZM471.5-24.9L471.8-24.55 470.6-15.4 468.55-15.1 468.2-15.45 468.45-24.65 471.5-24.9ZM493.95-24.9L494.15-24.6 493.9-21.45 489.25-21.8 486.75-21.8 486.6-7.8 486.75 0 483 0 483.15-7.5 483.05-21.8 480.55-21.8 475.8-21.45 475.5-21.8 475.8-24.9 493.95-24.9ZM524.04-24.9L524.24-24.6 523.99-21.45 519.34-21.8 516.84-21.8 516.69-7.8 516.84 0 513.09 0 513.24-7.5 513.14-21.8 510.64-21.8 505.89-21.45 505.59-21.8 505.89-24.9 524.04-24.9ZM551.19-24.9L551.04-7.8 551.14 0 547.44 0 547.59-7.5 547.54-10.9 533.99-10.85 533.94-7.8 534.04 0 530.34 0 530.49-7.5 530.34-24.9 534.09-24.9 533.99-14.2 540.74-14.15 547.54-14.2 547.44-24.9 551.19-24.9ZM563.88-24.9L563.74-7.8 563.84 0 560.13 0 560.28-7.5 560.13-24.9 563.88-24.9ZM593.88-25L593.73-7.45 593.78 0 589.78 0 576.68-19 576.43-19 576.38-8.3 576.48 0 573.08 0 573.23-7.35 573.13-24.9 577.08-24.9 590.18-5.9 590.53-5.9 590.43-24.75 593.88-25ZM621.58-24.95L610.98-13.25Q616.28-6.75 622.23-0.85L622.23-0.85 622.13-0.3Q620.58 0.2 618.53 0.45L618.53 0.45 617.93 0.2Q611.53-7 606.88-13L606.88-13 606.88-13.3 615.48-22.7 617.13-24.9 621.58-24.95ZM606.63-24.9L606.48-7.8 606.58 0 602.88 0 603.03-7.5 602.88-24.9 606.63-24.9ZM651.17-24.9L651.37-24.6 651.12-21.45 646.47-21.8 643.97-21.8 643.82-7.8 643.97 0 640.22 0 640.37-7.5 640.27-21.8 637.77-21.8 633.02-21.45 632.72-21.8 633.02-24.9 651.17-24.9ZM690.42-24.9L681.12 0 677.12 0 672.22-13.6 671.92-13.6 666.77 0 662.77 0 654.62-24.9 658.37-24.9 658.82-22.25 664.92-4.15 665.17-4.15 670.62-18.7 668.57-24.9 672.47-24.9 673.02-21.95 679.12-4.15 679.42-4.15 686.17-22.05 686.77-24.9 690.42-24.9ZM699.62-24.9L699.47-7.8 699.57 0 695.87 0 696.02-7.5 695.87-24.9 699.62-24.9ZM717.67-25.15Q721.82-25.15 724.87-23.4L724.87-23.4 724.17-19.95 723.72-19.8Q722.47-20.85 720.82-21.45 719.17-22.05 717.27-22.05L717.27-22.05Q713.57-22.05 711.62-19.68 709.67-17.3 709.67-12.6L709.67-12.6Q709.67-7.85 711.62-5.35 713.57-2.85 717.27-2.85L717.27-2.85Q719.07-2.85 720.89-3.48 722.72-4.1 724.17-5.15L724.17-5.15 724.62-5 724.27-1.55Q720.87 0.3 717.12 0.3L717.12 0.3Q711.62 0.3 708.67-2.98 705.72-6.25 705.72-12.3L705.72-12.3Q705.72-18.45 708.84-21.8 711.97-25.15 717.67-25.15L717.67-25.15ZM739.56-3L746.21-3.2 746.51-2.9 746.16 0 731.01 0 731.16-7.5 731.01-24.9 746.26-24.9 746.51-24.6 746.21-21.7 739.91-21.9 734.71-21.85 734.66-14.3 739.61-14.25 743.96-14.4 744.21-14.05 743.91-11.1 739.31-11.25 734.66-11.2 734.61-7.8 734.66-3.05 739.56-3Z" opacity="1" transform="matrix(1,0,0,1,0,0)" fill="#5ebc67" class="undefined-text-1" data-fill-palette-color="secondary" id="text-1"></path></svg></g></svg></g></svg></g></svg></g><g transform="matrix(1,0,0,1,75.54432000000001,0)"><svg viewBox="0 0 244.43135999999996 87.83131269597527" height="87.83131269597527" width="244.43135999999996"><g><svg version="1.0" xmlns="http://www.w3.org/2000/svg" xmlns:xlink="http://www.w3.org/1999/xlink" x="8" y="0" viewBox="0 0.00023700809106230736 100.00000762939453 38.449764251708984" enable-background="new 0 0 100 38.449" xml:space="preserve" width="228.43135999999996" height="87.83131269597527" class="icon-icon-0" data-fill-palette-color="accent" id="icon-0"><path d="M99.929 15.958c-0.053-0.283-0.157-0.619-0.364-1.056L80.803 0.005h-37.75c-0.874-0.054-1.348 0.359-1.763 0.841L28.672 13.487 1.078 18.071C0.694 18.406 0.309 18.735 0 19.599l0.059 9.493c0.598 1.521 1.006 1.324 1.459 1.536h5.312c0-12.905 19.225-12.856 19.225 0h49.021c0-12.933 19.08-12.906 19.08 0h4.354c0.731-0.067 1.142-0.713 1.49-1.47L99.929 15.958zM59.408 15.346H33.254c-0.995-0.393-1.13-0.988-0.716-1.713l9.403-9.278c0.212-0.18 0.379-0.428 0.747-0.374h16.72V15.346zM86.488 15.348H62.516V3.983h14.066c0.368-0.055 0.535 0.193 0.747 0.374l8.058 8.115C86.13 13.591 87.623 15.122 86.488 15.348z" fill="#5ebc67" data-fill-palette-color="accent"></path><path d="M16.396 22.843c-4.31 0-7.804 3.493-7.804 7.803s3.494 7.804 7.804 7.804 7.804-3.494 7.804-7.804S20.705 22.843 16.396 22.843zM16.396 33.921c-1.819 0-3.294-1.475-3.294-3.293 0-1.819 1.475-3.294 3.294-3.294 1.818 0 3.293 1.475 3.293 3.294C19.688 32.446 18.214 33.921 16.396 33.921z" fill="#5ebc67" data-fill-palette-color="accent"></path><path d="M84.615 22.839c-4.31 0-7.804 3.494-7.804 7.804s3.494 7.804 7.804 7.804 7.803-3.494 7.803-7.804S88.925 22.839 84.615 22.839zM84.615 33.921c-1.819 0-3.294-1.475-3.294-3.293 0-1.819 1.475-3.294 3.294-3.294 1.818 0 3.293 1.475 3.293 3.294C87.908 32.446 86.434 33.921 84.615 33.921z" fill="#5ebc67" data-fill-palette-color="accent"></path></svg></g></svg></g><g><rect width="75.54432000000001" height="4.4243332562492945" y="82.40697943972597" x="319.97567999999995" fill="#5ebc67" data-fill-palette-color="accent"></rect><rect width="75.54432000000001" height="4.4243332562492945" y="82.40697943972597" x="0" fill="#5ebc67" data-fill-palette-color="accent"></rect><rect width="75.54432000000001" height="4.4243332562492945" y="73.55831292722739" x="319.97567999999995" fill="#5ebc67" data-fill-palette-color="accent"></rect><rect width="75.54432000000001" height="4.4243332562492945" y="73.55831292722739" x="0" fill="#5ebc67" data-fill-palette-color="accent"></rect></g></svg></g></svg><rect width="395.52" height="172.50893862391447" fill="none" stroke="none" visibility="hidden"></rect></g></svg></g></svg>